<svg id="Layer_7" data-name="Layer 7" xmlns="http://www.w3.org/2000/svg" viewBox="0 0 766.52 409.19"><defs><style>.cls-1{fill:#fedab8;}.cls-2{fill:#301d20;}.cls-3{fill:#b12f33;}.cls-4{fill:#332f33;}.cls-5{fill:#454345;}.cls-6{fill:#0b1118;}.cls-7{fill:#9da0a3;}.cls-8{fill:#614345;}</style></defs><path class="cls-1" d="M2197,393.59a1,1,0,0,0-.6,1.7,279.51,279.51,0,0,0,26,23.65c13.77,11,37.47,29.64,72.89,41.78a216.4,216.4,0,0,0,72,11.56,1,1,0,0,0,1-.86c2-13.12.11-23-2.8-30.26C2349.73,401.6,2282.06,382,2197,393.59Z" transform="translate(-1857.35 -137.79)"/><path class="cls-2" d="M2555.69,320.92c10.69,32.06-4.75,100.78-5,109.83a14.12,14.12,0,0,0,.75,5.26c2.29,6.42,6.74,6.59,15.48,11.85,25,18.08,26.65,33.59,28.81,39.63,5.28,14.72,7.91,22.08,8.13,24.25,0,0,.58,6.75,2.49,7.73h0a80.87,80.87,0,0,0,8.83,8,1,1,0,0,1-.19,1.69c-5.07,2.38-23.28,9.41-47.2.51a.87.87,0,0,0-.48,0c-30.91-2.53-52.78,1.62-87-15.75a1,1,0,0,0-.85,0c-6.56,2.82-87.93,36.74-192.27,32.87-104.75-3.88-205-52.56-250.51-64.84a1,1,0,0,1,.14-2c19-2.44,86.37-10.48,148-9.79,65.39.73,135.37-25.4,148.56-30.56a1,1,0,0,0,0-1.85,416.89,416.89,0,0,0-96.79-29.4c-17.32-2.36-35.42-5.28-54.22-8.89-16.49-3.16-32.28-6.61-47.35-10.25q-12.06-2.69-24.36-5.64-6.18-1.49-12.27-3c-1.61-.4-17.89-4.47-33.46-8.75-34-9.35-63.47-19.32-63.47-19.32-9.68-3.28-30.26-10.25-50.22-18.49a524.51,524.51,0,0,1-84.65-44.54c-4.23-2.75-9.65-6.37-9.26-7.12,1.1-2.08,44.25,23,120,48.11,4.17,1.38,6.93,2.27,7.62,2.49a538.21,538.21,0,0,0,133.47,23.85c30.27,1.47,45.63-.5,50.05-9.41,5.49-11.06-8.21-27.64-34.94-59.93-39-47.09-77.3-93.42-76.2-94.48s44,46.07,107.86,97.22c33.85,27.1,50.75,40.69,70.57,49.71,27.23,12.4,46.18,13.36,132.44,32,22.93,4.95,41.87,8.86,54.56,11.44a1,1,0,0,0,.94-.3c31.57-34.06,46.64-65.65,54.58-88.59a.65.65,0,0,0,0-.13l1.37-143.46S2522.76,222.14,2555.69,320.92Z" transform="translate(-1857.35 -137.79)"/><path class="cls-3" d="M2563.84,530.08c-2-6.43-10.44-40.06-50.88-35-9.49,1.19-32.19,19.07-37.68,20.45C2503.4,521.8,2516.21,532.08,2563.84,530.08Z" transform="translate(-1857.35 -137.79)"/><path class="cls-4" d="M2603.82,510.34c2.71,3.16,12.93,14.12,19.45,17a1,1,0,0,1,.15,1.75c-4.85,3.18-22.21,10.08-59.58,1,.33-.58,13.49-13.85,23.42-12C2596.81,519.8,2602,514.38,2603.82,510.34Z" transform="translate(-1857.35 -137.79)"/><path class="cls-5" d="M2600.24,517.59a21.07,21.07,0,0,0,9.68,9.24,1,1,0,0,1-.41,1.91c-6,0-14.94-1.44-11.1-11.06A1,1,0,0,1,2600.24,517.59Z" transform="translate(-1857.35 -137.79)"/><path class="cls-6" d="M2559.77,503a7.47,7.47,0,0,0,2.7,7.33c4,3,11.27,1,12.79-4a8,8,0,0,0-4.21-9.17C2566.48,495,2560.73,498.36,2559.77,503Z" transform="translate(-1857.35 -137.79)"/><path class="cls-7" d="M2571,498.49a3.32,3.32,0,0,1,2.1,4.37c-.87,2.16-2.72,1.1-3.63-.42S2567.85,497.23,2571,498.49Z" transform="translate(-1857.35 -137.79)"/><path class="cls-7" d="M2561.62,500.6s-1.95,4.34.11,7.21c.75,1.06,2.34-.14,1.6-1.19A9.17,9.17,0,0,1,2561.62,500.6Z" transform="translate(-1857.35 -137.79)"/><path class="cls-2" d="M2060.06,489.3a.42.42,0,0,1-.12,0c-1.59-.51-35.85-11.59-47.93-14.42-11.71-2.74,22.91-7.71,59,.93a1,1,0,0,0,.79-1.8c-9.69-6.59-25.07-19.16,27.39-2a1,1,0,0,0,1.31-.95c.06-3.39,2.47-11,25.33-.92a1,1,0,0,0,1.38-.66c.92-3.35,6-11.9,34.84-1.31a1,1,0,0,0,1.29-.58c1.25-3.22,6.51-12.93,21.63-1.23a1,1,0,0,0,1.55-.44c1.27-3.28,6.42-10.61,25.78-.64a1,1,0,0,0,1.43-.64c1-3.87,6.57-14.54,38-2.71a1,1,0,0,0,1.32-1.19c-.84-3.41.07-9.4,20.58-3.07A1,1,0,0,0,2275,457c1-3.32,5.34-13.47,22.47-6.16a1,1,0,0,0,1.36-.71c.59-3,3.37-10.07,16.47-5a1,1,0,0,0,1.31-.74c.53-2.57,3.38-8.12,18.15-5.95a1,1,0,0,1,.86,1,47.94,47.94,0,0,1-4,18.46C2299.06,530.81,2080,492.9,2060.06,489.3Z" transform="translate(-1857.35 -137.79)"/><path class="cls-8" d="M2207.87,476a1,1,0,0,1,.75-.22,57,57,0,0,0,43.93-11.93,1,1,0,0,0-.28-1.72c-31.87-12.12-37.5-1.36-38.49,2.53a1,1,0,0,1-1.43.64c-19.36-10-24.51-2.64-25.78.64a1,1,0,0,1-1.55.44c-15.12-11.7-20.38-2-21.63,1.23a1,1,0,0,1-1.29.58c-28.79-10.59-33.92-2-34.84,1.31a1,1,0,0,1-1.38.66c-22.86-10.1-25.27-2.47-25.33.92a1,1,0,0,1-1.31.95c-52.46-17.21-37.08-4.64-27.39,2a1,1,0,0,1-.79,1.8c-36.14-8.64-70.76-3.67-59-.93,4.68,1.1,12.69,3.43,20.83,5.91l.13,0a170.11,170.11,0,0,0,40.76,1.95,167.8,167.8,0,0,0,17.06-2.14,1,1,0,0,1,.45,0c2.06.63,18.39,5.32,30.9.18a1,1,0,0,1,1,.17c2,1.81,10.88,8.48,23.75-.06a1,1,0,0,1,1.06,0,26,26,0,0,0,27-.08,1.05,1.05,0,0,1,.85-.1c4,1.38,14.33,4.2,24.95-.42A30.77,30.77,0,0,0,2207.87,476Z" transform="translate(-1857.35 -137.79)"/><path class="cls-2" d="M2491.15,185a1.09,1.09,0,0,0-.07-.3c-.89-2.29-12.3-31.92-13.46-44s-6.94,16.17,3.52,55.9c.27,1-.75,1.84-1.53,1.23-3.51-2.77-8.76-3.15-3.43,26.85.16.92-.71,1.66-1.45,1.21-3.22-2-8.72-2.47-2.69,23.67a1.09,1.09,0,0,1-.95,1.4c-2.26,0-6.22,1.52-2,12.74a1.09,1.09,0,0,1-1.11,1.53c-3.29-.73-8.85,1-4,24.34a1.13,1.13,0,0,1-.83,1.37c-2.78.44-9.37,3-2.44,17.88a1.09,1.09,0,0,1-1.1,1.61c-3.07-.69-7.44,1.16-3,20.85a1.07,1.07,0,0,1-1.13,1.37c-3-.56-9.12.33-8.76,17.38a1,1,0,0,1-1.22,1.11c-3.11-.81-11-1-11.77,17a1,1,0,0,1-1.42,1c-3.19-1.73-10.74-4-9.23,14.08a1,1,0,0,0,1.14,1C2434.23,382.51,2512.05,363.82,2491.15,185Z" transform="translate(-1857.35 -137.79)"/><path class="cls-8" d="M2491.15,184.83l0-.06c-.45-1.15-12.31-31.77-13.5-44.12-1.17-12.19-6.94,16.17,3.52,55.9.27,1-.75,1.84-1.53,1.23-3.51-2.77-8.76-3.15-3.43,26.85.16.92-.71,1.66-1.45,1.21-3.22-2-8.72-2.47-2.69,23.67a1.09,1.09,0,0,1-.95,1.4c-2.26,0-6.22,1.52-2,12.74a1.09,1.09,0,0,1-1.11,1.53c-3.29-.73-8.85,1-4,24.34a1.13,1.13,0,0,1-.83,1.37c-2.78.44-9.37,3-2.44,17.88a1.09,1.09,0,0,1-1.1,1.61c-3.16-.71-7.71,1.28-2.62,22.72h0c13-1.12,13.81-11.11,13.75-14.06a1.14,1.14,0,0,1,.68-1.08,16,16,0,0,0,8.69-8.58,18.46,18.46,0,0,0,1.23-9.48,1.12,1.12,0,0,1,.73-1.24,14.56,14.56,0,0,0,8.69-6.87c2.49-4.5,2-9.18,1.69-11.66a23.86,23.86,0,0,0-2.5-8.31,1.18,1.18,0,0,1,.22-1.4,26.69,26.69,0,0,0,7.89-16.45,28,28,0,0,0-4.31-17.92,1.2,1.2,0,0,1,0-1.38,26,26,0,0,0,1.55-2.37C2504.81,216.05,2494.49,192,2491.15,184.83Z" transform="translate(-1857.35 -137.79)"/><path class="cls-2" d="M2080.36,353.45s-.52-7.4,19.62-4.57c0,0,.28-7,26.67,0,0,0-3-13.23,29-3.12,0,0-17.78-22.49-7.11-21.3,0,0-10-18.78-2-21.24C2146.54,303.22,2315.56,409.1,2080.36,353.45Z" transform="translate(-1857.35 -137.79)"/></svg>