<svg id="Layer_7" data-name="Layer 7" xmlns="http://www.w3.org/2000/svg" viewBox="0 0 268.38 293.46"><defs><style>.cls-1{fill:#fedab8;}.cls-2{fill:#301d20;}.cls-3{fill:#b12f33;}.cls-4{fill:#332f33;}.cls-5{fill:#454345;}.cls-6{fill:#0b1118;}.cls-7{fill:#9da0a3;}.cls-8{fill:#614345;}</style></defs><path class="cls-1" d="M450.81,404.16a76.33,76.33,0,0,0,31.55,27S475.18,411.28,450.81,404.16Z" transform="translate(-434.4 -289.47)"/><path class="cls-2" d="M440,378.84s7,2.38,10.34,8.72c0,0-4.67,10.23,11.05,22.16,3.27,2.49,7.3,8.53,5.89,12.39-3,8.32-9.49,23.54-21.57,42.6C425.39,496.74,476,577.5,476,577.5a204.73,204.73,0,0,1,3.66-48.44,208.68,208.68,0,0,1,35.45-81.15c20.34.22,34.85,5,44.06,9.08,6.35,2.82,13.69,7.32,28.12,16.21,11.63,7.16,21.11,13.26,27.58,17.49,0,0,31.26,18.83,49.44,32.75l.1.08c3.71,2.87,8.16,4.84,8.43,4.46.76-1.05-27.24-24.47-59.24-48.48-17.7-13.27-29.43-21.32-27.73-25.16.85-1.92,8.4-1.5,23.43-.61,7.76.46,13.83.82,22.56,1.9,11.58,1.44,21.08,3.32,27.58,4.6,5,1,10.82,2.23,18,3.09,1.1.13,2.88.32,5.45.7,12.44,1.86,19.83,4.38,19.9,4.12.13-.47-24.57-9.37-55.91-16.05-19-4-38-7.13-38-7.13-12.67-2.06-16.34-2.33-20-3.26-1.59-.41-2.82-.85-3.45-1.06-11.5-3.82-20.57-11.92-25.47-16a182.54,182.54,0,0,0-24.62-17.34,279,279,0,0,1,11-40.8c8.13-23.39,21.56-52.76,42.73-76.69,0,0-53.62-.23-80.14,36.47-4,5.54-8.08,32-16.32,49.8a7.33,7.33,0,0,1-10,3.48c-5.36-2.74-13.37-5.44-22.36-3.67a31.09,31.09,0,0,0-8.18,2.88S450.29,380.05,440,378.84Z" transform="translate(-434.4 -289.47)"/><path class="cls-1" d="M511,446.53c1.61-1,3.27-2.17,4.95-3.37,1.92-1.36,3.72-2.72,5.41-4.05q4.22,2.49,8.73,4.91c13.29,7.09,22.23,8.65,34.38,15.62a141.59,141.59,0,0,1-27.88-4.57A181.26,181.26,0,0,1,511,446.53Z" transform="translate(-434.4 -289.47)"/><path class="cls-3" d="M443.33,387.38s7.07-3.66,12.53,2.35,6.39,18.22,5.51,20a41.9,41.9,0,0,1-6.31-2.5c-3.05-1.58-5.92-3.08-9.57-8.85C442.79,394.11,443.2,389.62,443.33,387.38Z" transform="translate(-434.4 -289.47)"/><path class="cls-4" d="M434.4,376.11s5.07,9.22,8.88,15.23c0,0,10.14-.74,9.82-5.53,0,0-1.83-4.26-1.05-7.07C452.05,378.74,450.28,377.77,434.4,376.11Z" transform="translate(-434.4 -289.47)"/><path class="cls-5" d="M437.18,377.43A38.4,38.4,0,0,1,451,386S455,379.07,437.18,377.43Z" transform="translate(-434.4 -289.47)"/><path class="cls-2" d="M579.4,290.41s14.15-1.4,18.18-.79-8.84,6.57-16.55,9.93c0,0,12.06-3.81,2.32,6.59,0,0,4,3.77-8.72,11.28,0,0,9.45.9-6,10.91,0,0,5.81,4.68-6,10.1,0,0,6.05,5.83-3.22,9.22,0,0,8.84,5.47-5.34,11.93,0,0,1.74,5.65-3.9,7.39,0,0,3.59,3.37-2.89,8.27,0,0,3.74,4.49-2.56,7.33,0,0,2.71,4.4-3,8.52,0,0,2.8,3.86-4.1,7,0,0,3.53,5.22-2.34,9.14C535.34,407.27,530.58,319,579.4,290.41Z" transform="translate(-434.4 -289.47)"/><path class="cls-2" d="M473.17,572.85a67.5,67.5,0,0,0,6,9.15c3.33,4.15.57-6.43-3.2-17.16,0,0,6.21,1.75.69-13,0,0,5.41,1.5.71-9.08,0,0,7.35-1.88,1.26-9,0,0,8-1.52,2.35-11.86,0,0,7.41-.4,3.22-11,0,0,8.16-2.91,3.45-10.12,0,0,9.56,3,4.48-11.15,0,0,6.34.56,3.28-7.25,0,0,6.75,1.81,3.75-7.61,0,0,6.78,2.52,4.73-8.78,0,0,7.11,2.78,4.6-7.86,0,0,4.31.7,3.43-5.48,0,0,4.15,1.22,3.16-4.79,0,0,4.94,1.34,3.43-5.05,0,0,4.2-.22,2.89-3.75,0,0-10.62-8.78-27.55,9S452,539.31,473.17,572.85Z" transform="translate(-434.4 -289.47)"/><path class="cls-6" d="M463.29,386.57a3.06,3.06,0,0,1-2,2.47,3.57,3.57,0,0,1-4.39-3.27,3.26,3.26,0,0,1,2.86-3A3.47,3.47,0,0,1,463.29,386.57Z" transform="translate(-434.4 -289.47)"/><path class="cls-7" d="M459.56,383.34a1.36,1.36,0,0,0-1.4,1.4c0,.95.9.79,1.46.33S461,383.27,459.56,383.34Z" transform="translate(-434.4 -289.47)"/><path class="cls-7" d="M462.89,385.41s.36,4.09-3.6,2.93A4.32,4.32,0,0,0,462.89,385.41Z" transform="translate(-434.4 -289.47)"/><path class="cls-8" d="M537.68,398.13c6.9-3.18,4.1-7,4.1-7,5.67-4.12,3-8.52,3-8.52,6.3-2.84,2.56-7.33,2.56-7.33,6.48-4.9,2.89-8.27,2.89-8.27,5.64-1.74,3.9-7.39,3.9-7.39,14.18-6.46,5.34-11.93,5.34-11.93,9.27-3.39,3.22-9.22,3.22-9.22,11.83-5.42,6-10.1,6-10.1,15.41-10,6-10.91,6-10.91,12.69-7.51,8.72-11.28,8.72-11.28,9.74-10.4-2.32-6.59-2.32-6.59s-16,7.1-18.17,16.15c0,0-4.46,1.1-4.63,7.67,0,0-6.6,2.2-7,7.9,0,0-7.62,5.86-3.75,13.81a6.81,6.81,0,0,0-3.88,5.8s-6,4.27-3.47,9.93a9.12,9.12,0,0,0-1.76,13.44,32.72,32.72,0,0,0-4.25,8.53c-3.58,11-.27,20.77,1.22,24.49l1.06-1,1.13-1C540.14,401.77,537.68,398.13,537.68,398.13Z" transform="translate(-434.4 -289.47)"/><path class="cls-8" d="M516.36,441.14c-4.58.58-5.32,5.39-5.32,5.39a7.09,7.09,0,0,0-4.85,5.87,9.49,9.49,0,0,0-7.31,9.78,9.27,9.27,0,0,0-5.89,4.91,8.81,8.81,0,0,0-.43,5.81,13.92,13.92,0,0,0-6.56,6.27,13.73,13.73,0,0,0-1.41,7.46,11.2,11.2,0,0,0-5.08,6.58,11.08,11.08,0,0,0,.49,7.14,13,13,0,0,0-4.18,6.29,13.1,13.1,0,0,0,.41,8.5,10.27,10.27,0,0,0-3.9,5.42,10.56,10.56,0,0,0,1.28,8.39c-.31.32-3.49,3.79-2.48,8.18a8.5,8.5,0,0,0,2.39,4.12,16.7,16.7,0,0,0-1.92,16.22,22.46,22.46,0,0,0,4.37,7.37h0s6.21,1.75.69-13c0,0,5.41,1.5.71-9.08,0,0,7.35-1.88,1.26-9,0,0,8-1.52,2.35-11.86,0,0,7.41-.4,3.22-11,0,0,8.16-2.91,3.45-10.12,0,0,9.56,3,4.48-11.15,0,0,6.34.56,3.28-7.25,0,0,6.75,1.81,3.75-7.61,0,0,6.78,2.52,4.73-8.78,0,0,7.11,2.78,4.6-7.86,0,0,4.31.7,3.43-5.48,0,0,4.15,1.22,3.16-4.79,0,0,4.94,1.34,3.43-5.05,0,0,4.2-.22,2.89-3.75C518.14,437.7,516.36,441.14,516.36,441.14Z" transform="translate(-434.4 -289.47)"/><path class="cls-2" d="M618.93,483.55s2.06-3.14-7-10.39c0,0,2.85-6.37-14.47-12.49,0,0,12.36,2.34,5.33-4.5,0,0,23,5.27,17.76-.51,0,0,17.53,3.72,11.3,0C631.83,455.63,530.11,431.32,618.93,483.55Z" transform="translate(-434.4 -289.47)"/></svg>