<?xml version="1.0" encoding="utf-8"?>
<!-- Generator: Adobe Illustrator 27.5.0, SVG Export Plug-In . SVG Version: 6.00 Build 0)  -->
<svg version="1.1" id="Layer_1" xmlns="http://www.w3.org/2000/svg" xmlns:xlink="http://www.w3.org/1999/xlink" x="0px" y="0px"
	 viewBox="0 0 2096.88 2189.45" style="enable-background:new 0 0 2096.88 2189.45;" xml:space="preserve">
<style type="text/css">
	.st0{fill-rule:evenodd;clip-rule:evenodd;fill:#CCCCCC;}
</style>
<g>
	<path class="st0" d="M470.92,1558.42c0,0,20.17-80.64-23.18-162.29c-43.35-81.65-80.64-92.74-112.9-84.67
		c-32.26,8.07-54.43,68.54-30.24,92.73c0,0-56.45-13.1-65.52-71.57c-9.07-58.46,15.12-159.26,92.74-220.76
		c77.62-61.49,168.34,34.28,264.1-4.03c95.76-38.3,166.33-60.49,222.78-164.32c56.45-103.82,225.81-480.83,381.05-615.91
		c0,0,5.05,98.79-74.59,251c0,0,231.84-165.31,322.56-578.61c0,0,30.24,366.93-235.88,598.77c0,0,342.73-195.56,576.59-548.37
		c0,0-193.54,409.26-425.39,558.45c0,0,377-179.43,568.53-453.61c0,0-159.26,308.46-409.26,479.82c0,0,417.32-199.59,574.57-431.44
		c0,0-157.24,354.83-663.28,570.55c0,0,366.93-127.02,536.27-286.28c0,0-169.35,227.81-510.06,324.58
		c0,0,300.39-54.43,532.24-183.46c0,0-215.72,221.76-534.26,272.16c0,0,195.56,20.16,288.3-8.07c0,0-181.45,106.85-423.37,76.61
		c0,0,164.32,75.61,308.47,69.56c0,0-237.89,72.58-468.73-50.4c0,0,212.69,136.09,502,160.28c0,0-332.65,46.37-541.31-127.02
		c0,0,107.86,194.55,478.81,265.11c0,0-235.88,40.32-459.66-120.97c0,0,198.57,165.32,385.06,206.65c0,0-268.14-26.21-441.52-145.16
		c0,0,139.1,137.09,395.14,217.73c0,0-231.85-34.28-374.99-117.94c0,0,72.58,84.67,205.64,140.11c0,0-158.26-26.21-299.38-99.79
		c-141.13-73.59-149.19,51.41-71.58,103.83c77.62,52.42,545.33-19.15,748.96,438.49c0,0-267.12-238.9-518.13-263.09
		c0,0,268.14,111.89,363.9,282.25c0,0-192.53-128.02-407.24-175.4c0,0,173.38,84.67,285.27,193.54c0,0-185.47-117.94-294.34-138.1
		c0,0,262.08,142.13,270.15,380.02c0,0-91.74-184.46-301.4-293.33c0,0,66.52,86.69,83.66,192.53c0,0-59.48-100.8-134.07-135.07
		c0,0,45.36,74.59,11.09,180.44c0,0-31.25-115.92-111.89-184.47c0,0,20.17,109.88,6.05,184.47c0,0-61.51-50.41-101.83-163.3
		c-40.32-112.9-34.27-211.69-165.32-306.44c0,0-55.45,78.63-152.21,71.57c-96.77-7.05-141.12-24.19-133.06,32.26
		c3.31,23.14,6.53,39.08,6.88,49.42h0.01c0,0,5.74,65.5-50.72,103.3c0,0,40.36-38.27,34.67-87.53c-2.48-0.2-5.29-0.59-8.49-1.18
		c-33.26-6.05-29.74-12.1-29.23-49.39c0.51-37.3-6.56-39.82-24.19-47.88c-17.64-8.07-53.92,17.64-71.57,16.63
		c-17.64-1.01,30.24,17.14,27.22,34.78c-3.03,17.63-15.62,6.05-15.62,6.05s19.65,31.25-22.18,43.85c0,0,28.22-8.06,9.07-42.33
		c0,0-13.61,14.62-28.73,2.52c-15.12-12.1-5.54-23.18-29.23-21.17c-23.69,2.01-41.84,33.77-75.1,26.21
		c-33.27-7.56-16.64-16.63-47.89,5.04c0,0,6.05-37.29,71.06-48.38c0,0-24.69-12.6-43.34-12.6c-18.65,0-38.31,8.57-45.36-1.01
		c-7.05-9.58,6.05-21.17-9.07-25.2c-15.12-4.03-37.29,6.55-38.31,25.2c0,0-3.53-30.24,22.18-39.31c25.7-9.07,49.4-2.02,78.63,11.59
		c0,0-2.02-8.57,2.01-19.66c0,0-25.19-23.18-57.45-17.64c0,0,21.68-20.16,67.54,2.02c45.86,22.18,48.38,25.7,79.13,35.28
		c30.74,9.58,31.75-11.59,61.99-5.04c0,0-22.68-16.63-11.59-35.28c0,0-37.3-8.57-52.42,15.62c0,0,5.04-34.27,55.95-38.81
		c50.9-4.54,66.03,35.28,99.29,31.25c33.27-4.03,103.33-23.18,112.4-25.2C466.88,1657.22,464.36,1609.84,470.92,1558.42"/>
</g>
</svg>
